<svg width="186" height="48" viewBox="0 0 186 48" fill="none" xmlns="http://www.w3.org/2000/svg">
<g clip-path="url(#clip0_437_1209)">
<path d="M9.99992 32.5427C9.99992 33.8654 11.0709 34.9382 12.3912 34.9382H19.8046C21.5407 34.9382 22.6848 36.0343 22.891 36.3842C23.3101 37.6002 24.6205 38.2766 25.8577 37.8934C27.1216 37.5036 27.83 36.1609 27.4408 34.8982C26.7391 32.6126 23.6194 30.1438 19.8046 30.1438H12.3912C11.0709 30.1438 9.99992 31.2166 9.99992 32.5393V32.5427Z" fill="#00006E"/>
<path d="M27.83 17.4331C27.83 19.3755 27.0817 21.1447 25.8611 22.4707C24.5042 20.9981 22.5619 20.0752 20.41 20.0752C21.8634 20.0752 23.0441 18.8924 23.0441 17.4365C23.0441 15.9805 21.8634 14.7977 20.41 14.7977H12.3913C11.0709 14.7944 10 13.7216 10 12.3955C10 11.0695 11.0709 10 12.3913 10H20.41C24.5008 10 27.83 13.3351 27.83 17.4331Z" fill="#26BCEE"/>
<path d="M27.83 27.5046C27.83 29.4403 27.0883 31.2062 25.8744 32.5289C24.534 31.2528 22.5152 30.2599 20.2137 30.1533C20.2802 30.1467 20.3467 30.1433 20.4133 30.1433C21.8667 30.1433 23.0474 28.9606 23.0474 27.5046C23.0474 26.0486 21.8667 24.8658 20.4133 24.8658H12.3912C11.0709 24.8658 9.99992 23.793 9.99992 22.4703C9.99992 21.1476 11.0709 20.0748 12.3912 20.0748H20.4099C24.5008 20.0748 27.83 23.4099 27.83 27.5079V27.5046Z" fill="#2E6CB4"/>
<path d="M115.636 31.0775V18.7867C115.636 18.6367 115.755 18.5168 115.905 18.5168H119.134C119.284 18.5168 119.404 18.6367 119.404 18.7867V19.7062C119.404 19.8129 119.54 19.8562 119.6 19.7695C120.415 18.6068 121.569 18.2103 122.919 18.2369C124.333 18.2669 125.464 18.8533 126.119 20.1127C126.159 20.186 126.262 20.1927 126.305 20.1227C126.681 19.533 127.449 18.5568 129.248 18.3169C130.203 18.1903 131.151 18.1703 132.075 18.4802C133.303 18.8933 134.091 19.7529 134.547 20.9456C134.879 21.8186 134.979 22.7248 134.976 23.651C134.976 24.6705 134.972 25.6867 134.976 26.7062C134.976 27.6058 134.936 28.1689 135.847 28.1655C135.867 28.1655 135.884 28.1655 135.903 28.1655C136.056 28.1589 136.186 28.2822 136.186 28.4354V31.1441C136.186 31.2741 136.093 31.3873 135.963 31.4107C134.999 31.5806 134.034 31.6272 133.083 31.2974C132.325 31.0375 131.204 30.2879 131.204 28.1589C131.157 26.8095 131.197 25.4568 131.177 24.1041C131.171 23.711 131.121 23.3112 131.024 22.9314C130.901 22.4249 130.432 21.7952 129.747 21.6453C129.006 21.4854 128.337 21.6853 127.825 22.2617C127.389 22.7548 127.243 23.3079 127.243 24.0009C127.236 26.0366 127.236 30.008 127.236 31.0775C127.236 31.2274 127.117 31.3474 126.967 31.3474H123.704C123.554 31.3474 123.435 31.2274 123.435 31.0775C123.435 30.028 123.438 26.1832 123.428 24.2108C123.428 23.8176 123.392 23.4145 123.305 23.0347C123.139 22.315 122.577 21.7619 121.918 21.6353C121.19 21.4787 120.428 21.7086 119.916 22.3716C119.507 22.8981 119.397 23.4878 119.397 24.1441C119.397 26.1199 119.41 30.0147 119.414 31.0775C119.414 31.2274 119.294 31.3474 119.144 31.3474H115.902C115.752 31.3474 115.632 31.2274 115.632 31.0775H115.636Z" fill="#00006E"/>
<path d="M78.0993 19.7557C78.0993 18.6163 78.1093 15.6443 78.1093 13.8619C78.1093 13.7119 78.229 13.592 78.3787 13.592H81.5982C81.7478 13.592 81.8675 13.7119 81.8675 13.8619C81.8675 15.3745 81.8675 26.6624 81.8675 26.6624C81.8675 26.9123 81.8675 27.1555 81.9008 27.4021C81.9673 27.9218 82.4296 28.3016 82.9518 28.265C83.0183 28.2617 83.0815 28.255 83.148 28.2517C83.3043 28.2383 83.4407 28.3649 83.4407 28.5215V31.2003C83.4407 31.3269 83.3509 31.4401 83.2278 31.4635C82.3165 31.6534 81.2423 31.6767 80.3543 31.4368C79.2135 31.1036 78.7578 30.294 78.5982 29.9375C78.5649 29.8609 78.4618 29.8509 78.412 29.9175C77.9896 30.4773 77.4175 30.9371 76.7723 31.1869C73.789 32.3331 70.1006 31.3868 68.5374 27.9718C67.7326 26.1826 67.5696 23.5506 68.7902 21.4749C70.1338 19.2326 72.2458 18.1332 74.8533 18.3164C75.412 18.3564 77.1348 18.5863 77.8931 19.8157C77.9497 19.909 78.0927 19.8657 78.0927 19.759L78.0993 19.7557ZM71.7037 24.9566C71.7136 26.769 73.1371 28.1717 74.9663 28.1717C76.8388 28.1717 78.3222 26.7391 78.3188 24.9399C78.3155 23.1374 76.8322 21.7281 74.9497 21.7348C73.1105 21.7414 71.697 23.1508 71.707 24.9599L71.7037 24.9566Z" fill="#00006E"/>
<path d="M39.2174 30.0842V31.0837C39.2174 31.2337 39.0977 31.3536 38.948 31.3536H35.692C35.5423 31.3536 35.4226 31.2337 35.4226 31.0837V13.8719C35.4226 13.722 35.5423 13.6021 35.692 13.6021H38.948C39.0977 13.6021 39.2174 13.722 39.2174 13.8719V19.7458C39.2174 19.8557 39.3604 19.8957 39.417 19.8024C40.019 18.8162 41.4125 18.3431 42.7362 18.2965C46.0954 18.1765 48.8459 20.5288 49.3015 23.8705C49.5909 25.9795 49.1186 27.8886 47.6918 29.4978C46.3016 31.0637 44.1497 32.0133 41.3094 31.3503C40.5378 31.1704 39.8826 30.7472 39.417 30.0242C39.3571 29.9343 39.2174 29.9743 39.2174 30.0809V30.0842ZM45.6098 24.9733C45.6197 23.1708 44.1929 21.7515 42.3571 21.7348C40.4713 21.7182 38.9813 23.1209 38.9713 24.9233C38.9647 26.7158 40.4247 28.1218 42.3038 28.1351C44.1497 28.1485 45.5998 26.7891 45.6064 24.9733H45.6098Z" fill="#00006E"/>
<path d="M110.627 27.399C111.242 27.9853 111.847 28.5651 112.459 29.1515C112.569 29.2581 112.572 29.4346 112.463 29.5413C111.724 30.2709 110.9 30.8573 109.928 31.1971C107.604 32.0101 105.325 31.8868 103.157 30.6807C101.856 29.9577 100.965 28.8483 100.493 27.4356C99.9441 25.7864 99.9308 24.1138 100.509 22.4746C101.324 20.1657 103.024 18.843 105.372 18.3466C107.025 17.9968 108.658 18.1034 110.184 18.883C112.183 19.9059 113.301 21.5817 113.58 23.7973C113.657 24.4104 113.61 25.0401 113.597 25.6864C113.597 25.833 113.474 25.953 113.327 25.953H104.028C103.965 25.953 103.915 26.0096 103.922 26.0729C104.012 26.9458 104.454 27.5555 105.189 27.982C106.38 28.6683 108.724 28.785 110.178 27.4689C110.208 27.4423 110.238 27.4156 110.268 27.3923C110.374 27.3023 110.53 27.3057 110.63 27.4023L110.627 27.399ZM109.712 23.4608C109.775 23.4608 109.825 23.4075 109.822 23.3442C109.789 22.8278 109.546 22.4247 109.177 22.0848C108.681 21.6284 108.082 21.3885 107.424 21.3385C106.28 21.2485 105.242 21.5118 104.437 22.388C104.191 22.6545 104.028 22.9677 103.982 23.3409C103.975 23.4042 104.025 23.4608 104.088 23.4608H109.716H109.712Z" fill="#00006E"/>
<path d="M156.213 31.3673C155.116 31.3673 154.028 31.3606 152.947 31.3573C152.798 31.3573 152.678 31.2373 152.678 31.0874V18.7833C152.678 18.6333 152.798 18.5134 152.947 18.5134H156.213C156.363 18.5134 156.483 18.6333 156.483 18.7833V19.7195C156.483 19.8261 156.616 19.8694 156.676 19.7828C157.264 18.9232 158.319 18.4567 159.163 18.3168C160.384 18.1102 161.575 18.2202 162.676 18.8132C163.969 19.5096 164.618 20.6757 164.864 22.0784C164.96 22.6348 164.997 23.2045 165.007 23.7709C165.03 24.897 165.014 26.0298 165.047 27.1526C165.047 28.1122 165.546 28.1954 165.958 28.1755C166.111 28.1688 166.238 28.2921 166.238 28.4453C166.238 29.0817 166.238 30.5943 166.238 31.1607C166.238 31.2906 166.144 31.4006 166.018 31.4239C165.503 31.5205 164.172 31.7004 163.108 31.294C162.037 30.9208 161.512 30.0845 161.322 29.0151C161.249 28.5919 161.249 28.1755 161.245 27.7423C161.232 26.5362 161.242 25.2935 161.232 24.0874C161.232 22.1983 160.148 21.6052 158.937 21.5919C157.564 21.5753 156.493 22.6314 156.483 24.0274C156.469 26.0365 156.479 30.0246 156.483 31.0974C156.483 31.2473 156.363 31.3673 156.213 31.3673Z" fill="#00006E"/>
<path d="M166.783 21.6759V18.764C166.783 18.614 166.903 18.4941 167.052 18.4941H168.336C168.396 18.4941 168.443 18.4441 168.443 18.3875V13.8696C168.443 13.7197 168.562 13.5998 168.712 13.5998H171.865C172.015 13.5998 172.134 13.7197 172.134 13.8696V18.3875C172.134 18.4475 172.184 18.4941 172.241 18.4941H174.709C174.858 18.4941 174.978 18.614 174.978 18.764V21.6759C174.978 21.8258 174.858 21.9458 174.709 21.9458H172.237C172.178 21.9458 172.128 21.9958 172.131 22.0557C172.134 22.1157 172.134 22.1624 172.131 22.2123C172.131 23.645 172.131 25.0776 172.134 26.5103C172.134 27.7863 172.656 28.4793 174.452 28.2195C174.615 28.1961 174.762 28.3227 174.762 28.486V31.268C174.762 31.4013 174.665 31.5146 174.536 31.5346C173.604 31.6911 172.646 31.7511 171.719 31.6045C171.043 31.4979 170.415 31.2713 169.869 30.8415C169.064 30.2052 168.695 29.3323 168.546 28.3561C168.476 27.8963 168.439 27.4232 168.436 26.9567C168.423 25.4075 168.436 23.8549 168.436 22.3056V22.0524C168.436 21.9924 168.386 21.9458 168.329 21.9458H167.046C166.896 21.9458 166.776 21.8258 166.776 21.6759H166.783Z" fill="#00006E"/>
<path d="M55.1515 18.7831V19.8592C55.1515 19.9692 55.2912 20.0091 55.351 19.9158C56.2823 18.4632 57.7956 18.1534 59.5782 18.2633C59.7213 18.2733 59.831 18.3899 59.831 18.5332V21.5484C59.831 21.7117 59.688 21.8349 59.5284 21.8183C59.3687 21.8016 59.2091 21.7816 59.0528 21.7683C58.3909 21.7117 57.739 21.7616 57.1138 21.9882C55.8998 22.428 55.1681 23.4808 55.1581 24.8735C55.1415 26.616 55.1482 30.0877 55.1482 31.0772C55.1482 31.2271 55.0284 31.3471 54.8788 31.3471H51.646C51.4963 31.3471 51.3766 31.2271 51.3766 31.0772V18.7831C51.3766 18.6331 51.4963 18.5132 51.646 18.5132H54.8854C55.0351 18.5132 55.1548 18.6331 55.1548 18.7831H55.1515Z" fill="#00006E"/>
<path d="M62.0681 18.5136H65.2709C65.4206 18.5136 65.5403 18.6336 65.5403 18.7835V26.703C65.5403 26.9463 65.5503 27.1895 65.5869 27.4294C65.6767 27.9991 65.9295 28.199 66.5048 28.1857C66.5314 28.1857 66.5547 28.1857 66.5813 28.1857C66.731 28.1857 66.8574 28.3056 66.8574 28.4555V31.1809C66.8574 31.3109 66.7643 31.4208 66.6379 31.4475C65.9527 31.5774 64.7887 31.644 64.0138 31.4741C62.7765 31.2076 62.0116 30.3247 61.8187 28.9486C61.7721 28.6021 61.7854 28.2257 61.7854 27.8758L61.7987 18.7835C61.7987 18.6336 61.9184 18.5136 62.0681 18.5136Z" fill="#00006E"/>
<path d="M94.4607 19.77V18.7871C94.4607 18.6372 94.5804 18.5173 94.7301 18.5173H97.9595C98.1092 18.5173 98.2289 18.6372 98.2289 18.7871C98.2323 20.1865 98.2456 26.6934 98.2289 30.0385C98.2389 31.3745 98.0127 32.5606 97.4374 33.7267C96.7788 35.0561 95.6913 35.8957 94.3443 36.4354C92.9042 37.0118 91.4042 37.0818 89.8843 36.9318C88.2979 36.7752 86.8012 36.3321 85.4442 35.4692C85.3844 35.4326 85.3345 35.3992 85.2846 35.3626C85.1615 35.2793 85.1316 35.116 85.2114 34.9928C85.7203 34.2065 86.2292 33.3802 86.7048 32.6439C86.7813 32.5239 86.9409 32.484 87.064 32.5573C87.7524 32.9504 88.2712 33.1969 88.9497 33.4102C90.0872 33.7667 91.3178 33.7967 92.4718 33.4568C94.5206 32.8971 94.5638 31.0113 94.5505 30.185C94.5505 30.0918 94.4341 30.0451 94.3676 30.1084C94.2079 30.2617 94.0649 30.4049 93.9053 30.5249C93.2468 31.018 92.4818 31.2445 91.6803 31.3545C90.0972 31.5744 88.5939 31.3445 87.2269 30.4782C85.6937 29.5454 84.6061 27.8861 84.36 25.8671C84.1405 24.0713 84.4664 22.2955 85.5607 20.8395C86.9542 18.9804 88.8433 18.1608 91.1515 18.314C92.9641 18.5173 93.8055 19.0737 94.2612 19.83C94.3177 19.9233 94.4607 19.8833 94.4607 19.7733V19.77ZM88.0717 24.9076C88.0451 26.6534 89.4652 28.0461 91.2679 28.0761C93.1736 28.1094 94.6203 26.7567 94.647 24.9909C94.6736 23.195 93.2368 21.7724 91.361 21.7357C89.5018 21.7024 88.1016 23.0718 88.075 24.9042L88.0717 24.9076Z" fill="#00006E"/>
<path d="M63.671 17.4307C64.8631 17.4307 65.8295 16.4626 65.8295 15.2684C65.8295 14.0742 64.8631 13.1061 63.671 13.1061C62.4789 13.1061 61.5125 14.0742 61.5125 15.2684C61.5125 16.4626 62.4789 17.4307 63.671 17.4307Z" fill="#00006E"/>
<path d="M147.764 27.399C148.379 27.9853 148.984 28.5651 149.596 29.1515C149.706 29.2581 149.709 29.4346 149.6 29.5413C148.861 30.2709 148.036 30.8573 147.065 31.1971C144.74 32.0101 142.462 31.8868 140.294 30.6807C138.993 29.9577 138.102 28.8483 137.63 27.4356C137.081 25.7864 137.068 24.1138 137.646 22.4746C138.461 20.1657 140.161 18.843 142.509 18.3466C144.162 17.9968 145.795 18.1034 147.321 18.883C149.32 19.9059 150.438 21.5817 150.717 23.7973C150.794 24.4104 150.747 25.0401 150.734 25.6864C150.734 25.833 150.611 25.953 150.464 25.953H141.165C141.102 25.953 141.052 26.0096 141.059 26.0729C141.148 26.9458 141.591 27.5555 142.326 27.982C143.517 28.6683 145.861 28.785 147.315 27.4689C147.345 27.4423 147.375 27.4156 147.404 27.3923C147.511 27.3023 147.667 27.3057 147.767 27.4023L147.764 27.399ZM146.849 23.4608C146.912 23.4608 146.962 23.4075 146.959 23.3442C146.926 22.8278 146.683 22.4247 146.314 22.0848C145.818 21.6284 145.219 21.3885 144.561 21.3385C143.417 21.2485 142.379 21.5118 141.574 22.388C141.328 22.6545 141.165 22.9677 141.119 23.3409C141.112 23.4042 141.162 23.4608 141.225 23.4608H146.852H146.849Z" fill="#00006E"/>
</g>
<defs>
<clipPath id="clip0_437_1209">
<rect width="165.375" height="28" fill="white" transform="translate(10 10)"/>
</clipPath>
</defs>
</svg>
